<svg width="24" height="24" viewBox="0 0 24 24" fill="none" xmlns="http://www.w3.org/2000/svg">
<path d="M16.6089 4.3999C18.9232 4.40003 20.8003 6.27698 20.8003 8.59131V8.68896C20.8002 10.4984 19.6481 12.5849 18.0171 14.5659C16.6135 16.2707 14.9475 17.787 13.6587 18.8218L13.1313 19.2349C12.8165 19.473 12.4198 19.6001 11.9995 19.6001C11.5734 19.6 11.1772 19.4731 10.8726 19.2378L10.8687 19.2349C9.53375 18.2163 7.58702 16.5142 5.98291 14.5659C4.35184 12.5849 3.19976 10.4985 3.19971 8.68896V8.59131C3.19973 6.27692 5.07672 4.39992 7.39111 4.3999C8.73622 4.3999 10.0019 5.04647 10.7886 6.13525L10.7896 6.13623L11.3521 6.91162L11.9995 7.80615L12.6479 6.91162L13.2104 6.13623V6.13525C13.9971 5.04647 15.2638 4.3999 16.6089 4.3999Z" stroke="#121212" stroke-width="1.6"/>
</svg>
