<svg width="20" height="20" viewBox="0 0 20 20" fill="none" xmlns="http://www.w3.org/2000/svg">
<path d="M13.8408 3.7002C15.7509 3.7003 17.2997 5.24906 17.2998 7.15918V7.24023C17.2998 8.73594 16.3466 10.4674 14.9883 12.1172C13.8203 13.5357 12.434 14.798 11.3613 15.6592L10.9219 16.0029C10.6659 16.1962 10.3432 16.2998 10 16.2998C9.6514 16.2998 9.32847 16.1969 9.08105 16.0059V16.0049L9.07812 16.0029L8.63867 15.6592C7.566 14.798 6.17968 13.5357 5.01172 12.1172C3.65338 10.4674 2.7002 8.73594 2.7002 7.24023V7.15918C2.7003 5.24906 4.24906 3.7003 6.15918 3.7002C7.26943 3.7002 8.31457 4.23321 8.96387 5.13184L8.96484 5.13281L9.43359 5.7793L10 6.56152L10.5664 5.7793L11.0352 5.13281L11.0361 5.13184C11.6854 4.23321 12.7306 3.7002 13.8408 3.7002Z" stroke="#FF5429" stroke-width="1.4"/>
</svg>
