<svg width="40" height="40" viewBox="0 0 40 40" fill="none" xmlns="http://www.w3.org/2000/svg">
<rect width="40" height="40" rx="20" fill="#121212" fill-opacity="0.05"/>
<mask id="path-2-inside-1_95_8185" fill="white">
<path d="M10 16C10 12.6863 12.6863 10 16 10H24C27.3137 10 30 12.6863 30 16V24C30 27.3137 27.3137 30 24 30H16C12.6863 30 10 27.3137 10 24V16Z"/>
</mask>
<path d="M10 16C10 12.6863 12.6863 10 16 10H24C27.3137 10 30 12.6863 30 16V24C30 27.3137 27.3137 30 24 30H16C12.6863 30 10 27.3137 10 24V16Z" fill="white"/>
<path d="M16 10V11H24V10V9H16V10ZM30 16H29V24H30H31V16H30ZM24 30V29H16V30V31H24V30ZM10 24H11V16H10H9V24H10ZM16 30V29C13.2386 29 11 26.7614 11 24H10H9C9 27.866 12.134 31 16 31V30ZM30 24H29C29 26.7614 26.7614 29 24 29V30V31C27.866 31 31 27.866 31 24H30ZM24 10V11C26.7614 11 29 13.2386 29 16H30H31C31 12.134 27.866 9 24 9V10ZM16 10V9C12.134 9 9 12.134 9 16H10H11C11 13.2386 13.2386 11 16 11V10Z" fill="#D6D6D6" mask="url(#path-2-inside-1_95_8185)"/>
</svg>
