<svg width="40" height="40" viewBox="0 0 40 40" fill="none" xmlns="http://www.w3.org/2000/svg">
<path d="M10 16C10 12.6863 12.6863 10 16 10H24C27.3137 10 30 12.6863 30 16V24C30 27.3137 27.3137 30 24 30H16C12.6863 30 10 27.3137 10 24V16Z" fill="#FF5429"/>
<path d="M25.2698 15.3526C25.6273 15.6126 25.7073 16.1126 25.4473 16.4701L19.0473 25.2701C18.9098 25.4601 18.6973 25.5776 18.4623 25.5976C18.2273 25.6176 17.9998 25.5301 17.8348 25.3651L14.6348 22.1651C14.3223 21.8526 14.3223 21.3451 14.6348 21.0326C14.9473 20.7201 15.4548 20.7201 15.7673 21.0326L18.3048 23.5701L24.1548 15.5276C24.4148 15.1701 24.9148 15.0901 25.2723 15.3501L25.2698 15.3526Z" fill="white"/>
</svg>
