<svg width="140" height="18" viewBox="0 0 140 18" fill="none" xmlns="http://www.w3.org/2000/svg">
<path d="M5.15651 17.0983H2.71477V7.80089H0.507812V5.66436H2.71477V4.81915C2.71477 1.93132 4.5226 0.428711 6.8939 0.428711C7.87999 0.428711 8.86607 0.757407 9.73477 1.34436L8.79564 3.15219C8.1852 2.75306 7.64521 2.54176 7.03477 2.54176C5.93129 2.54176 5.15651 3.26958 5.15651 4.81915V5.66436H8.65477V7.80089H5.15651V17.0983Z" fill="#FF5429"/>
<path d="M14.7553 5.28871C18.324 5.28871 20.7657 7.91828 20.7657 11.3226C20.7657 14.7505 18.3944 17.3331 14.7553 17.3331C11.1396 17.3331 8.79179 14.7505 8.79179 11.3226C8.79179 7.91828 11.1631 5.28871 14.7553 5.28871ZM14.7553 7.51915C12.5483 7.51915 11.21 9.28002 11.21 11.3226C11.21 13.3887 12.5483 15.0791 14.7553 15.0791C16.9857 15.0791 18.324 13.3887 18.324 11.3226C18.324 9.28002 16.8683 7.51915 14.7553 7.51915Z" fill="#FF5429"/>
<path d="M33.6057 17.0983H31.164V10.9C31.164 8.90436 30.037 7.5661 28.0414 7.5661C26.1162 7.5661 24.8014 9.13915 24.8014 11.0409V17.0983H22.3831V5.50002H24.5901L24.731 7.19045C25.8344 5.9461 27.1257 5.33567 28.6284 5.33567C31.4457 5.33567 33.6057 7.33132 33.6057 10.8765V17.0983Z" fill="#FF5429"/>
<path d="M36.859 2.44784L39.3007 2.18958V5.54697H42.6816V7.63654H39.2772V13.1539C39.2772 14.3748 39.8172 15.0557 40.9442 15.0557C41.4137 15.0557 41.9537 14.8913 42.4233 14.6565L43.1276 16.7226C42.3294 17.0748 41.625 17.2391 40.8033 17.2391C38.2911 17.3096 36.859 15.8774 36.859 13.1539V7.63654H34.6285V5.54697H36.859V2.44784Z" fill="#FF5429"/>
<path d="M44.0721 11.3931V9.20958H52.6182V11.3931H44.0721Z" fill="#FF5429"/>
<path d="M64.0789 7.3548L64.1493 5.52349H66.4971C66.4971 9.37393 66.4971 13.2478 66.4971 17.0983H64.1963L64.0789 15.22C63.3041 16.6991 61.5197 17.4035 60.0876 17.4035C56.7067 17.427 54.1476 15.2435 54.1476 11.2991C54.1476 7.42523 56.8006 5.26523 60.1345 5.26523C61.778 5.26523 63.3511 6.04002 64.0789 7.3548ZM60.3224 7.47219C58.2563 7.47219 56.5658 8.92784 56.5658 11.2991C56.5658 13.6939 58.2563 15.1496 60.3224 15.1496C65.3232 15.1496 65.3232 7.47219 60.3224 7.47219Z" fill="#FF5429"/>
<path d="M68.8389 5.52349H71.0928L71.2572 7.04958C72.1024 5.57045 73.4172 5.26523 74.6615 5.26523C75.7885 5.26523 76.8685 5.66436 77.5259 6.25132L76.4224 8.36436C75.8354 7.8948 75.272 7.66002 74.3798 7.66002C72.7128 7.66002 71.2572 8.69306 71.2572 10.8296V17.0983H68.8389V5.52349Z" fill="#FF5429"/>
<path d="M86.0663 13.9757L87.7097 15.5957C86.4184 16.8635 84.9863 17.4035 83.3193 17.4035C79.9854 17.4035 77.215 15.3139 77.215 11.3226C77.215 7.33132 79.9619 5.24176 83.3193 5.24176C84.9158 5.24176 86.2541 5.7348 87.4984 6.95567L85.9489 8.57567C85.2211 7.87132 84.2584 7.54263 83.3428 7.54263C81.2532 7.54263 79.6332 9.02176 79.6332 11.3226C79.6332 13.7644 81.3237 15.0557 83.3193 15.0557C84.3054 15.0557 85.315 14.7505 86.0663 13.9757Z" fill="#FF5429"/>
<path d="M88.9257 0.663493H91.3439V7.23741C92.3535 5.82871 93.7152 5.35915 95.1004 5.35915C98.3639 5.35915 99.8665 7.54262 99.8665 10.8531V17.0983H97.4483V10.8765C97.4483 8.69306 96.3213 7.61306 94.537 7.61306C92.6587 7.61306 91.3439 9.16262 91.3439 11.0644V17.0983H88.9257V0.663493Z" fill="#FF5429"/>
<path d="M104.46 5.47654V17.0983H102.041V5.47654H104.46ZM101.76 2.11915C101.76 4.1148 104.765 4.1148 104.765 2.11915C104.765 0.146971 101.76 0.146971 101.76 2.11915Z" fill="#FF5429"/>
<path d="M115.428 5.50002H118.081L113.174 17.1452H110.521L105.59 5.50002H108.267L109.817 9.23306L111.859 14.6096L113.69 9.70263L115.428 5.50002Z" fill="#FF5429"/>
<path d="M129.957 12.2148H120.566C120.777 13.9757 122.233 15.1261 124.346 15.1261C125.519 15.1261 126.999 14.68 127.703 13.8818L129.276 15.4078C128.079 16.7226 126.083 17.38 124.299 17.38C120.495 17.38 118.053 14.9618 118.053 11.2522C118.053 7.73045 120.519 5.21828 124.134 5.21828C127.867 5.21828 130.403 7.49567 129.957 12.2148ZM120.613 10.1722H127.633C127.492 8.34089 126.153 7.37828 124.205 7.37828C122.444 7.37828 120.988 8.34089 120.613 10.1722Z" fill="#FF5429"/>
<mask id="path-2-outside-1_117_23782" maskUnits="userSpaceOnUse" x="134.67" y="-0.336182" width="5" height="18" fill="black">
<rect fill="white" x="134.67" y="-0.336182" width="5" height="18"/>
<path d="M139.339 2.00952H138.091V15.7664H139.339V17.1121H135.67V15.7664H136.917V2.00952H135.67V0.663818H139.339V2.00952Z"/>
</mask>
<path d="M139.339 2.00952H138.091V15.7664H139.339V17.1121H135.67V15.7664H136.917V2.00952H135.67V0.663818H139.339V2.00952Z" fill="#BDBDBD"/>
<path d="M139.339 2.00952V2.16604H139.496V2.00952H139.339ZM138.091 2.00952V1.853H137.935V2.00952H138.091ZM138.091 15.7664H137.935V15.9229H138.091V15.7664ZM139.339 15.7664H139.496V15.6098H139.339V15.7664ZM139.339 17.1121V17.2686H139.496V17.1121H139.339ZM135.67 17.1121H135.514V17.2686H135.67V17.1121ZM135.67 15.7664V15.6098H135.514V15.7664H135.67ZM136.917 15.7664V15.9229H137.074V15.7664H136.917ZM136.917 2.00952H137.074V1.853H136.917V2.00952ZM135.67 2.00952H135.514V2.16604H135.67V2.00952ZM135.67 0.663818V0.507297H135.514V0.663818H135.67ZM139.339 0.663818H139.496V0.507297H139.339V0.663818ZM139.339 2.00952V1.853H138.091V2.00952V2.16604H139.339V2.00952ZM138.091 2.00952H137.935V15.7664H138.091H138.248V2.00952H138.091ZM138.091 15.7664V15.9229H139.339V15.7664V15.6098H138.091V15.7664ZM139.339 15.7664H139.183V17.1121H139.339H139.496V15.7664H139.339ZM139.339 17.1121V16.9555H135.67V17.1121V17.2686H139.339V17.1121ZM135.67 17.1121H135.827V15.7664H135.67H135.514V17.1121H135.67ZM135.67 15.7664V15.9229H136.917V15.7664V15.6098H135.67V15.7664ZM136.917 15.7664H137.074V2.00952H136.917H136.761V15.7664H136.917ZM136.917 2.00952V1.853H135.67V2.00952V2.16604H136.917V2.00952ZM135.67 2.00952H135.827V0.663818H135.67H135.514V2.00952H135.67ZM135.67 0.663818V0.82034H139.339V0.663818V0.507297H135.67V0.663818ZM139.339 0.663818H139.183V2.00952H139.339H139.496V0.663818H139.339Z" fill="#BDBDBD" mask="url(#path-2-outside-1_117_23782)"/>
</svg>
