<svg width="48" height="34" viewBox="0 0 48 34" fill="none" xmlns="http://www.w3.org/2000/svg">
<rect width="48" height="34" rx="4" fill="#FF5429"/>
<path d="M22.1201 15.3066C23.6677 15.3067 25.1679 15.9642 26.0195 17.1152L26.0742 15.7148L26.0801 15.5713H28.7744V27.7031H26.1309L26.1221 27.5625L26.0303 26.1094C25.1148 27.4042 23.4354 28.0136 22.0723 28.0137C20.3121 28.0257 18.7544 27.4637 17.6357 26.373C16.5163 25.2814 15.8497 23.6743 15.8496 21.625C15.8496 19.6092 16.5415 18.026 17.6787 16.9473C18.8148 15.8698 20.384 15.3066 22.1201 15.3066ZM31 26.2539C31 23.9344 34.5 23.9344 34.5 26.2539C34.4997 28.6006 31.0003 28.6006 31 26.2539ZM41.0762 16.7725H39.5762V26.499H41.0762V27.8994H36.6758V26.499H38.1758V16.7725H36.6758V15.3721H41.0762V16.7725ZM14.4863 5.40039C15.7967 5.40039 17.1073 5.83719 18.2617 6.61719L17.0137 9.01953C16.2025 8.48918 15.4849 8.20806 14.6738 8.20801C13.2075 8.20801 12.1779 9.17546 12.1777 11.2344V12.3584H16.8262V15.1973H12.1777V27.5527H8.93262V15.1973H6V12.3584H8.93262V11.2344C8.93279 7.39708 11.3353 5.40042 14.4863 5.40039ZM22.3115 17.8633C21.2911 17.8634 20.3695 18.2228 19.7041 18.8682C19.0399 19.5127 18.6221 20.4507 18.6221 21.625C18.6222 22.8119 19.0406 23.756 19.7051 24.4033C20.3704 25.0513 21.2913 25.411 22.3115 25.4111C23.5474 25.4111 24.4647 24.938 25.0742 24.2363C25.6862 23.5316 25.996 22.5865 25.9961 21.6367C25.996 20.6871 25.686 19.7428 25.0742 19.0381C24.4647 18.3363 23.5476 17.8633 22.3115 17.8633Z" fill="white"/>
</svg>
