<svg width="269" height="35" viewBox="0 0 269 35" fill="none" xmlns="http://www.w3.org/2000/svg">
<path d="M9.87592 33.2281H5.19984V15.1536H0.973389V11.0001H5.19984V9.35695C5.19984 3.74291 8.66194 0.821777 13.2031 0.821777C15.0915 0.821777 16.98 1.46077 18.6436 2.60184L16.8451 6.11632C15.6761 5.3404 14.6419 4.92962 13.4729 4.92962C11.3597 4.92962 9.87592 6.34454 9.87592 9.35695V11.0001H16.5753V15.1536H9.87592V33.2281Z" fill="#FF5429"/>
<path d="M28.2581 10.2698C35.0924 10.2698 39.7685 15.3818 39.7685 22C39.7685 28.6638 35.2273 33.6845 28.2581 33.6845C21.3339 33.6845 16.8377 28.6638 16.8377 22C16.8377 15.3818 21.3789 10.2698 28.2581 10.2698ZM28.2581 14.6059C24.0317 14.6059 21.4688 18.0291 21.4688 22C21.4688 26.0165 24.0317 29.3028 28.2581 29.3028C32.5295 29.3028 35.0924 26.0165 35.0924 22C35.0924 18.0291 32.3047 14.6059 28.2581 14.6059Z" fill="#FF5429"/>
<path d="M64.3579 33.2281H59.6818V21.1784C59.6818 17.2988 57.5236 14.6971 53.7018 14.6971C50.0149 14.6971 47.497 17.7552 47.497 21.4523V33.2281H42.8659V10.6806H47.0924L47.3622 13.9669C49.4754 11.5478 51.9483 10.3611 54.8259 10.3611C60.2214 10.3611 64.3579 14.2407 64.3579 21.1328V33.2281Z" fill="#FF5429"/>
<path d="M70.588 4.74705L75.2641 4.24498V10.7719H81.7386V14.8341H75.2191V25.5601C75.2191 27.9335 76.2532 29.2571 78.4114 29.2571C79.3107 29.2571 80.3448 28.9376 81.244 28.4812L82.5929 32.4978C81.0642 33.1824 79.7153 33.5019 78.1416 33.5019C73.3307 33.6388 70.588 30.8546 70.588 25.5601V14.8341H66.3166V10.7719H70.588V4.74705Z" fill="#FF5429"/>
<path d="M84.4016 22.1369V17.8921H100.768V22.1369H84.4016Z" fill="#FF5429"/>
<path d="M122.716 14.2864L122.851 10.7262H127.347C127.347 18.2116 127.347 25.7427 127.347 33.2281H122.941L122.716 29.5766C121.232 32.4521 117.815 33.8214 115.072 33.8214C108.598 33.8671 103.697 29.6223 103.697 21.9543C103.697 14.4233 108.777 10.2242 115.162 10.2242C118.309 10.2242 121.322 11.7304 122.716 14.2864ZM115.522 14.5146C111.565 14.5146 108.328 17.3444 108.328 21.9543C108.328 26.6099 111.565 29.4397 115.522 29.4397C125.099 29.4397 125.099 14.5146 115.522 14.5146Z" fill="#FF5429"/>
<path d="M131.832 10.7262H136.148L136.463 13.693C138.081 10.8175 140.599 10.2242 142.982 10.2242C145.14 10.2242 147.209 11.0001 148.468 12.1412L146.354 16.249C145.23 15.3361 144.151 14.8797 142.443 14.8797C139.25 14.8797 136.463 16.888 136.463 21.0415V33.2281H131.832V10.7262Z" fill="#FF5429"/>
<path d="M164.823 27.1576L167.97 30.3069C165.497 32.7716 162.755 33.8214 159.562 33.8214C153.178 33.8214 147.872 29.7592 147.872 22C147.872 14.2407 153.133 10.1785 159.562 10.1785C162.62 10.1785 165.183 11.137 167.566 13.5104L164.598 16.6598C163.204 15.2905 161.361 14.6515 159.607 14.6515C155.606 14.6515 152.503 17.527 152.503 22C152.503 26.7468 155.741 29.2571 159.562 29.2571C161.451 29.2571 163.384 28.6638 164.823 27.1576Z" fill="#FF5429"/>
<path d="M170.299 1.2782H174.93V14.0581C176.863 11.3196 179.471 10.4067 182.124 10.4067C188.374 10.4067 191.251 14.6515 191.251 21.0871V33.2281H186.62V21.1328C186.62 16.888 184.462 14.7884 181.045 14.7884C177.448 14.7884 174.93 17.8008 174.93 21.4979V33.2281H170.299V1.2782Z" fill="#FF5429"/>
<path d="M200.047 10.6349V33.2281H195.416V10.6349H200.047ZM194.877 4.10805C194.877 7.98767 200.632 7.98767 200.632 4.10805C200.632 0.274065 194.877 0.274065 194.877 4.10805Z" fill="#FF5429"/>
<path d="M221.052 10.6806H226.133L216.736 33.3193H211.655L202.213 10.6806H207.339L210.306 17.9378L214.218 28.3899L217.725 18.8506L221.052 10.6806Z" fill="#FF5429"/>
<path d="M248.876 23.7344H230.891C231.296 27.1576 234.083 29.3941 238.13 29.3941C240.378 29.3941 243.211 28.5269 244.56 26.975L247.572 29.9418C245.279 32.4978 241.457 33.7758 238.04 33.7758C230.756 33.7758 226.08 29.0746 226.08 21.863C226.08 15.0166 230.801 10.1329 237.725 10.1329C244.874 10.1329 249.73 14.5602 248.876 23.7344ZM230.981 19.7635H244.425C244.155 16.2034 241.592 14.332 237.86 14.332C234.488 14.332 231.7 16.2034 230.981 19.7635Z" fill="#FF5429"/>
<mask id="path-2-outside-1_120_22661" maskUnits="userSpaceOnUse" x="258" y="0.272217" width="9" height="34" fill="black">
<rect fill="white" x="258" y="0.272217" width="9" height="34"/>
<path d="M266 3.27222H263.245V31.2458H266V33.2458H259V31.2458H261.745V3.27222H258.999V1.27222H266V3.27222Z"/>
</mask>
<path d="M266 3.27222H263.245V31.2458H266V33.2458H259V31.2458H261.745V3.27222H258.999V1.27222H266V3.27222Z" fill="#BDBDBD"/>
<path d="M266 3.27222V3.47222H266.2V3.27222H266ZM263.245 3.27222V3.07222H263.045V3.27222H263.245ZM263.245 31.2458H263.045V31.4459H263.245V31.2458ZM266 31.2458H266.2V31.0458H266V31.2458ZM266 33.2458V33.4459H266.2V33.2458H266ZM259 33.2458H258.8V33.4459H259V33.2458ZM259 31.2458V31.0458H258.8V31.2458H259ZM261.745 31.2458V31.4459H261.945V31.2458H261.745ZM261.745 3.27222H261.945V3.07222H261.745V3.27222ZM258.999 3.27222H258.799V3.47222H258.999V3.27222ZM258.999 1.27222V1.07222H258.799V1.27222H258.999ZM266 1.27222H266.2V1.07222H266V1.27222ZM266 3.27222V3.07222H263.245V3.27222V3.47222H266V3.27222ZM263.245 3.27222H263.045V31.2458H263.245H263.445V3.27222H263.245ZM263.245 31.2458V31.4459H266V31.2458V31.0458H263.245V31.2458ZM266 31.2458H265.8V33.2458H266H266.2V31.2458H266ZM266 33.2458V33.0458H259V33.2458V33.4459H266V33.2458ZM259 33.2458H259.2V31.2458H259H258.8V33.2458H259ZM259 31.2458V31.4459H261.745V31.2458V31.0458H259V31.2458ZM261.745 31.2458H261.945V3.27222H261.745H261.545V31.2458H261.745ZM261.745 3.27222V3.07222H258.999V3.27222V3.47222H261.745V3.27222ZM258.999 3.27222H259.199V1.27222H258.999H258.799V3.27222H258.999ZM258.999 1.27222V1.47222H266V1.27222V1.07222H258.999V1.27222ZM266 1.27222H265.8V3.27222H266H266.2V1.27222H266Z" fill="#BDBDBD" mask="url(#path-2-outside-1_120_22661)"/>
</svg>
